# xmcd
#
# Track frame offsets:
#	150
#	12734
#	27973
#	43111
#	56970
#	69105
#	81762
#	106285
#	121864
#	134383
#	148117
#	159629
#
# Disc length: 2307
#
# Revision: 1
# Processed by: cddbd v1.5.1PL0 Copyright (c) Steve Scherf et al.
# Submitted via: EasyCDDAExtractor 4.6.9.1
# Normalized: r0:DSETVAR1,TDELIM( - )
#
DISCID=a709010c
DTITLE=Various Artist - Absolutely The Best of Gospel
DYEAR=1999
DGENRE=Gospel
TTITLE0=Staple Singers - Will the Circle Be Unbroken
TTITLE1=Aretha Franklin - This Little Light of Mine
TTITLE2=Harmonizing Four - Rock of Ages
TTITLE3=Little Richard - Precious Lord
TTITLE4=The Five Blind Boys of Alabama - Just a Closer Walk with Thee
TTITLE5=Swan Silvertones - Working on a Building
TTITLE6=Carolina Spirituals - It's Gonna Rain
TTITLE7=Highway Q C's - Amazing Grace
TTITLE8=The Blind Boys of Mississippi - Where He Leads Me
TTITLE9=Cross Jordan Singers - Early in the Morning
TTITLE10=Caravans - Lord Don't Leave Us Now
TTITLE11=Staple Singers - Uncloudy Day
EXTD=Fuel 2000\n
EXTT0=
EXTT1=
EXTT2=
EXTT3=
EXTT4=
EXTT5=
EXTT6=
EXTT7=
EXTT8=
EXTT9=
EXTT10=
EXTT11=
PLAYORDER=
